<svg width="20" height="20" viewBox="0 0 20 20" fill="none" xmlns="http://www.w3.org/2000/svg">
<path fill-rule="evenodd" clip-rule="evenodd" d="M9.99967 2.08325C5.62742 2.08325 2.08301 5.62766 2.08301 9.99992C2.08301 14.3722 5.62742 17.9166 9.99967 17.9166C14.3719 17.9166 17.9163 14.3722 17.9163 9.99992C17.9163 5.62766 14.3719 2.08325 9.99967 2.08325ZM0.833008 9.99992C0.833008 4.93731 4.93706 0.833252 9.99967 0.833252C15.0623 0.833252 19.1663 4.93731 19.1663 9.99992C19.1663 15.0625 15.0623 19.1666 9.99967 19.1666C4.93706 19.1666 0.833008 15.0625 0.833008 9.99992Z" fill="#1F67F5"/>
<path fill-rule="evenodd" clip-rule="evenodd" d="M11.5536 6.12553C11.4024 5.95816 11.1573 5.95816 11.0062 6.12553L7.78037 9.69695C7.6292 9.86432 7.6292 10.1357 7.78037 10.303L11.0062 13.8745C11.1573 14.0418 11.4024 14.0418 11.5536 13.8745C11.7048 13.7071 11.7048 13.4358 11.5536 13.2684L8.60153 10L11.5536 6.73162C11.7048 6.56425 11.7048 6.29289 11.5536 6.12553Z" fill="#1F67F5"/>
</svg>
