<svg width="204" height="204" viewBox="0 0 204 204" fill="none" xmlns="http://www.w3.org/2000/svg">
<g filter="url(#filter0_d_1022_2039)">
<circle cx="114" cy="94" r="24" transform="rotate(-180 114 94)" fill="white"/>
<path d="M120.354 94.3536C120.549 94.1583 120.549 93.8417 120.354 93.6465L117.172 90.4645C116.976 90.2692 116.66 90.2692 116.464 90.4645C116.269 90.6597 116.269 90.9763 116.464 91.1716L119.293 94L116.464 96.8284C116.269 97.0237 116.269 97.3403 116.464 97.5355C116.66 97.7308 116.976 97.7308 117.172 97.5355L120.354 94.3536ZM107 94.5L120 94.5L120 93.5L107 93.5L107 94.5Z" fill="#272D4E"/>
</g>
<defs>
<filter id="filter0_d_1022_2039" x="0" y="0" width="204" height="204" filterUnits="userSpaceOnUse" color-interpolation-filters="sRGB">
<feFlood flood-opacity="0" result="BackgroundImageFix"/>
<feColorMatrix in="SourceAlpha" type="matrix" values="0 0 0 0 0 0 0 0 0 0 0 0 0 0 0 0 0 0 127 0" result="hardAlpha"/>
<feOffset dx="-12" dy="8"/>
<feGaussianBlur stdDeviation="39"/>
<feComposite in2="hardAlpha" operator="out"/>
<feColorMatrix type="matrix" values="0 0 0 0 0.357778 0 0 0 0 0.445433 0 0 0 0 0.670833 0 0 0 0.22 0"/>
<feBlend mode="normal" in2="BackgroundImageFix" result="effect1_dropShadow_1022_2039"/>
<feBlend mode="normal" in="SourceGraphic" in2="effect1_dropShadow_1022_2039" result="shape"/>
</filter>
</defs>
</svg>
