<svg width="14" height="14" viewBox="0 0 14 14" fill="none" xmlns="http://www.w3.org/2000/svg">
<path fill-rule="evenodd" clip-rule="evenodd" d="M6.99967 1.43876C3.9391 1.43876 1.45801 3.88674 1.45801 6.90648C1.45801 9.92621 3.9391 12.3742 6.99967 12.3742C10.0603 12.3742 12.5413 9.92621 12.5413 6.90648C12.5413 3.88674 10.0603 1.43876 6.99967 1.43876ZM0.583008 6.90648C0.583008 3.40994 3.45585 0.575439 6.99967 0.575439C10.5435 0.575439 13.4163 3.40994 13.4163 6.90648C13.4163 10.403 10.5435 13.2375 6.99967 13.2375C3.45585 13.2375 0.583008 10.403 0.583008 6.90648Z" fill="#1F67F5"/>
<path fill-rule="evenodd" clip-rule="evenodd" d="M8.08763 4.23074C7.98181 4.11514 7.81024 4.11514 7.70442 4.23074L5.44636 6.69738C5.34054 6.81297 5.34054 7.00038 5.44636 7.11598L7.70442 9.58262C7.81024 9.69821 7.98181 9.69821 8.08763 9.58262C8.19345 9.46702 8.19345 9.27961 8.08763 9.16401L6.02117 6.90668L8.08763 4.64934C8.19345 4.53375 8.19345 4.34633 8.08763 4.23074Z" fill="#1F67F5"/>
</svg>
