<svg width="25" height="25" viewBox="0 0 25 25" fill="none" xmlns="http://www.w3.org/2000/svg">
<path fill-rule="evenodd" clip-rule="evenodd" d="M0.422442 0.422442C0.985698 -0.140814 1.89892 -0.140814 2.46217 0.422442L12.5 10.4603L22.5378 0.422442C23.1011 -0.140814 24.0143 -0.140814 24.5776 0.422442C25.1408 0.985698 25.1408 1.89892 24.5776 2.46217L14.5397 12.5L24.5776 22.5378C25.1408 23.1011 25.1408 24.0143 24.5776 24.5776C24.0143 25.1408 23.1011 25.1408 22.5378 24.5776L12.5 14.5397L2.46217 24.5776C1.89892 25.1408 0.985698 25.1408 0.422442 24.5776C-0.140814 24.0143 -0.140814 23.1011 0.422442 22.5378L10.4603 12.5L0.422442 2.46217C-0.140814 1.89892 -0.140814 0.985698 0.422442 0.422442Z" fill="#1F67F5"/>
</svg>
