<svg width="20" height="20" viewBox="0 0 20 20" fill="none" xmlns="http://www.w3.org/2000/svg">
<path fill-rule="evenodd" clip-rule="evenodd" d="M2.08203 9.99959C2.08203 14.3718 5.62644 17.9163 9.9987 17.9163C14.371 17.9163 17.9154 14.3718 17.9154 9.99959C17.9154 5.62734 14.3709 2.08293 9.9987 2.08293C5.62644 2.08293 2.08203 5.62734 2.08203 9.99959ZM9.9987 19.1663C4.93609 19.1663 0.832031 15.0622 0.832031 9.99959C0.832031 4.93698 4.93609 0.832928 9.9987 0.832927C15.0613 0.832927 19.1654 4.93698 19.1654 9.99959C19.1654 15.0622 15.0613 19.1663 9.9987 19.1663Z" fill="#363940"/>
<path fill-rule="evenodd" clip-rule="evenodd" d="M6.12553 8.44614C5.95816 8.59731 5.95816 8.84241 6.12553 8.99358L9.69695 12.2194C9.86432 12.3706 10.1357 12.3706 10.303 12.2194L13.8745 8.99358C14.0418 8.84241 14.0418 8.59731 13.8745 8.44614C13.7071 8.29497 13.4358 8.29497 13.2684 8.44614L10 11.3982L6.73162 8.44614C6.56425 8.29497 6.29289 8.29497 6.12553 8.44614Z" fill="#363940"/>
</svg>
