<svg width="21" height="20" viewBox="0 0 21 20" fill="none" xmlns="http://www.w3.org/2000/svg">
<path d="M10.1137 6.66525C8.27747 6.66525 6.77896 8.16376 6.77896 10C6.77896 11.8362 8.27747 13.3348 10.1137 13.3348C11.9499 13.3348 13.4485 11.8362 13.4485 10C13.4485 8.16376 11.9499 6.66525 10.1137 6.66525ZM20.1155 10C20.1155 8.61907 20.128 7.25064 20.0504 5.87221C19.9729 4.27113 19.6076 2.85017 18.4368 1.67938C17.2635 0.506085 15.8451 0.14334 14.244 0.065788C12.8631 -0.0117644 11.4946 0.000744113 10.1162 0.000744113C8.73528 0.000744113 7.36685 -0.0117644 5.98842 0.065788C4.38734 0.14334 2.96638 0.508587 1.79559 1.67938C0.622296 2.85267 0.259551 4.27113 0.181999 5.87221C0.104447 7.25314 0.116955 8.62157 0.116955 10C0.116955 11.3784 0.104447 12.7494 0.181999 14.1278C0.259551 15.7289 0.624798 17.1498 1.79559 18.3206C2.96888 19.4939 4.38734 19.8567 5.98842 19.9342C7.36936 20.0118 8.73778 19.9993 10.1162 19.9993C11.4971 19.9993 12.8656 20.0118 14.244 19.9342C15.8451 19.8567 17.266 19.4914 18.4368 18.3206C19.6101 17.1473 19.9729 15.7289 20.0504 14.1278C20.1305 12.7494 20.1155 11.3809 20.1155 10ZM10.1137 15.131C7.27429 15.131 4.98274 12.8394 4.98274 10C4.98274 7.16058 7.27429 4.86903 10.1137 4.86903C12.9531 4.86903 15.2447 7.16058 15.2447 10C15.2447 12.8394 12.9531 15.131 10.1137 15.131ZM15.4548 5.8572C14.7919 5.8572 14.2565 5.32184 14.2565 4.65889C14.2565 3.99594 14.7919 3.46058 15.4548 3.46058C16.1178 3.46058 16.6531 3.99594 16.6531 4.65889C16.6533 4.81631 16.6225 4.97222 16.5623 5.1177C16.5022 5.26317 16.4139 5.39535 16.3026 5.50666C16.1913 5.61798 16.0591 5.70624 15.9136 5.76639C15.7682 5.82654 15.6122 5.8574 15.4548 5.8572Z" fill="white"/>
</svg>
