<svg width="245" height="52" viewBox="0 0 245 52" fill="none" xmlns="http://www.w3.org/2000/svg">
<path d="M28.042 9.80864C28.042 10.7211 27.8892 11.6335 27.5835 12.5459C27.2779 13.4584 26.8959 14.3708 26.361 15.2072C25.8261 16.0436 25.1385 16.88 24.3744 17.6403C23.6103 18.4007 22.7698 19.085 21.7765 19.6172C20.8596 20.2255 19.7899 20.6817 18.7201 21.0619C17.6504 21.4421 16.5043 21.6702 15.2817 21.7462C15.0525 21.7462 14.8233 21.7462 14.5941 21.7462C14.3648 21.6702 14.212 21.6702 13.9828 21.5942C13.83 21.5181 13.6772 21.4421 13.4479 21.3661C13.2187 21.29 13.0659 21.214 12.9895 21.138C12.9131 21.0619 12.7603 20.9099 12.6074 20.6817C12.4546 20.4536 12.3018 20.3016 12.2254 20.2255C12.149 20.1495 12.149 19.9974 12.149 19.8454C12.149 19.6933 12.149 19.4652 12.149 19.2371C12.149 19.009 12.149 18.7809 12.149 18.5527C12.149 18.3246 12.149 18.1726 12.2254 18.1726C12.2254 18.1726 12.3018 18.1726 12.4546 18.2486C12.6074 18.3246 12.8367 18.4007 13.1423 18.4767C13.2951 18.4767 13.4479 18.5527 13.6007 18.4767C13.7536 18.4767 13.9828 18.4007 14.1356 18.4007C14.6705 18.3246 15.3582 18.1726 16.0458 17.9445C16.8099 17.6403 17.4976 17.3362 18.2617 16.88C19.0258 16.4237 19.7899 15.8915 20.5539 15.3592C21.318 14.751 21.9293 14.1427 22.5406 13.4584C23.1518 12.774 23.6103 12.0897 23.9159 11.3294C24.298 10.569 24.4508 9.80864 24.4508 9.04828C24.4508 8.44 24.298 7.83171 24.0687 7.29946C23.8395 6.76721 23.4575 6.15893 22.9226 5.62668C22.617 5.2465 22.0057 4.94235 21.0888 4.79028C20.1719 4.56217 19.1022 4.48614 17.8032 4.48614C16.7335 4.48614 15.511 4.56217 14.2884 4.71424C13.0659 4.86631 11.7669 5.17046 10.5444 5.55063C9.47468 5.93081 8.55778 6.23496 7.79369 6.46307C7.0296 6.69117 6.41833 6.99532 5.88347 7.14739C5.34861 7.3755 4.89016 7.52757 4.58452 7.67964C4.27889 7.83171 3.97325 7.90774 3.66762 8.05982C3.43839 8.13585 3.20917 8.28792 2.97994 8.36396C2.75071 8.44 2.52149 8.51603 2.29226 8.59206C2.06303 8.6681 1.91022 8.74414 1.7574 8.74414C1.60458 8.74414 1.52817 8.74414 1.45177 8.74414C1.29895 8.74414 1.22254 8.6681 1.14613 8.6681C1.06972 8.59207 0.993313 8.59206 0.916904 8.51603C0.840496 8.43999 0.764087 8.43999 0.764087 8.43999C0.687678 8.43999 0.61127 8.43999 0.61127 8.43999C0.534861 8.43999 0.458452 8.43999 0.458452 8.43999C0.382043 8.43999 0.305635 8.36396 0.305635 8.28792C0.229226 8.13585 0.152817 7.98378 0.0764083 7.90775C-4.38353e-07 7.83171 0 7.75567 0 7.67964C0 7.6036 0 7.52756 0 7.45153C0 7.37549 0.0764083 7.29946 0.0764083 7.22342C0.0764083 7.14739 0.0764083 7.07135 0.0764083 6.99531C0.0764083 6.91928 0.0764083 6.84325 0.0764083 6.76721C0.0764083 6.69117 0.0764083 6.61514 0.0764083 6.5391C0.0764083 6.46307 0.152817 6.38703 0.305635 6.31099C0.534861 6.15892 0.916905 5.85478 1.37536 5.4746C1.91022 5.09442 2.52149 4.71424 3.28557 4.25803C4.04966 3.80182 4.89016 3.3456 5.88347 2.88938C6.87678 2.43317 7.94651 1.97696 9.09264 1.59678C10.2388 1.2166 11.4613 0.912456 12.7603 0.608313C14.0592 0.380206 15.4346 0.228135 16.8863 0.1521C18.3381 0.1521 19.5606 0.30417 20.6304 0.608313C21.7001 0.912456 22.6934 1.36867 23.4575 1.97696C24.298 2.50921 24.9092 3.19353 25.5205 3.87785C26.0554 4.56217 26.5138 5.32253 26.8195 6.08289C27.1251 6.84325 27.3543 7.52756 27.5071 8.21188C27.8892 8.74413 28.042 9.35243 28.042 9.80864ZM11.6905 6.69117C11.6905 6.76721 11.6141 7.07135 11.6141 7.52757C11.5377 7.98378 11.5377 8.59206 11.4613 9.27639C11.3849 9.96071 11.3085 10.7971 11.3085 11.7095C11.2321 12.622 11.1557 13.6104 11.1557 14.5989C11.0793 15.5874 11.0029 16.5758 11.0029 17.6403C10.9264 18.6288 10.9264 19.6172 10.9264 20.5297C10.9264 21.4421 10.85 22.4306 10.85 23.419C10.85 24.4075 10.85 25.472 10.85 26.4605C10.85 27.677 10.85 28.8176 10.9264 29.9581C11.0029 31.0986 11.0793 32.2392 11.2321 33.3037C11.3085 33.6838 11.3085 33.988 11.1557 34.1401C11.0029 34.2921 11.0029 34.5202 11.0029 34.6723C11.0029 34.7484 11.0029 34.7484 11.0793 34.8244C11.1557 34.9004 11.1557 34.9004 11.0793 34.9004C11.0029 34.9765 10.9264 34.9765 10.85 34.9765C10.6972 34.9765 10.6208 34.9004 10.5444 34.8244C10.468 34.7484 10.468 34.7484 10.3916 34.6723C10.3916 34.5963 10.3152 34.5202 10.3152 34.5202C10.3152 34.4442 10.2388 34.4442 10.1624 34.4442C10.0859 34.4442 10.0095 34.4442 9.93313 34.5202C9.85672 34.5963 9.78031 34.6723 9.6275 34.8244C9.55109 34.9765 9.39827 35.1285 9.32186 35.2806C9.24545 35.4327 9.09264 35.5847 9.01623 35.6608C8.93982 35.8129 8.787 35.8889 8.71059 35.8889C8.63418 35.8889 8.48137 35.9649 8.32855 35.9649C8.17573 35.9649 8.09932 35.9649 8.09932 35.8129C8.09932 35.7368 8.02291 35.7368 8.02291 35.6608C8.02291 35.6608 7.94651 35.6608 7.8701 35.5847C7.79369 35.5847 7.79369 35.5087 7.71728 35.5087C7.64087 35.4327 7.64087 35.3566 7.64087 35.2806C7.56446 34.9765 7.48805 34.8244 7.33524 34.6723C7.25883 34.5202 7.18242 34.3682 7.18242 34.2161C7.18242 33.912 7.10601 33.1516 6.95319 31.859C6.80037 30.5664 6.80038 28.8176 6.80038 26.5365C6.80038 25.6241 6.80038 24.6356 6.80038 23.5711C6.80038 22.5066 6.87678 21.3661 6.95319 20.2255C7.0296 19.161 7.10601 18.0205 7.25883 16.8039C7.33524 15.5874 7.48805 14.3708 7.64087 13.1542C7.79369 11.9376 7.8701 10.8731 7.94651 9.80864C8.02291 8.82018 8.09932 7.90774 8.17573 7.29946C8.17573 7.22342 8.25214 7.14738 8.32855 7.07135C8.40496 7.07135 8.48137 6.99531 8.55778 6.99531C8.63418 6.99531 8.787 6.99532 9.01623 6.91928C9.16905 6.91928 9.39827 6.84325 9.6275 6.76721C9.78031 6.69117 10.0095 6.61514 10.3152 6.46307C10.5444 6.38703 10.85 6.31099 11.0793 6.23496C11.3085 6.15892 11.4613 6.15892 11.6141 6.15892C11.6141 6.38703 11.6905 6.5391 11.6905 6.69117Z" fill="black"/>
<path d="M39.5795 18.4765C39.5795 18.9327 39.5031 19.3889 39.4267 19.8451C39.3503 20.3013 39.2739 20.7576 39.1211 21.1377C38.9683 21.5179 38.8154 21.8981 38.6626 22.2022C38.5098 22.5064 38.2806 22.7345 38.0513 22.9626C37.8985 23.1147 37.7457 23.1907 37.5929 23.1907C37.5165 23.1907 37.3637 23.1907 37.2873 23.1147C37.2108 23.0386 37.1344 22.9626 37.1344 22.8866C37.058 22.8105 37.058 22.7345 36.9816 22.7345C36.9052 22.7345 36.8288 22.7345 36.7524 22.7345C36.676 22.7345 36.5232 22.7345 36.4468 22.7345C36.3704 22.7345 36.2175 22.6585 36.1411 22.5824C36.0647 22.5064 35.9883 22.2783 35.9883 22.0502C35.9883 21.746 35.9883 21.3658 35.9883 20.9096C36.0647 20.4534 36.0647 19.9212 36.0647 19.465C36.0647 19.0848 35.9883 18.7046 35.9119 18.4005C35.8355 18.0963 35.6827 18.0203 35.4534 18.0203C35.377 18.0203 35.1478 18.0963 34.8422 18.2484C34.5365 18.4005 34.2309 18.7806 33.9253 19.3129C33.6196 19.8451 33.2376 20.6055 32.932 21.67C32.6263 22.6585 32.3207 24.0271 32.0915 25.6999C32.0915 27.9049 32.0915 29.6537 32.1679 30.9463C32.1679 32.239 32.2443 33.3035 32.2443 34.0638C32.2443 34.6721 32.2443 35.1283 32.1679 35.4325C32.1679 35.7366 32.0915 35.8887 31.9386 35.9647C31.8622 36.0407 31.7094 36.0407 31.4802 36.1168C31.251 36.1928 31.0217 36.2688 30.7161 36.3449C30.4869 36.4209 30.1812 36.497 29.952 36.497C29.7228 36.573 29.57 36.573 29.4936 36.573C29.4172 36.573 29.3407 36.497 29.2643 36.4209C29.1115 36.3449 29.0351 36.1928 28.8823 36.1168C28.7295 35.9647 28.6531 35.8887 28.5003 35.7366C28.4238 35.5845 28.3474 35.5085 28.3474 35.3564C28.3474 35.2043 28.271 34.8242 28.3474 34.2919C28.3474 33.7597 28.3474 33.0754 28.3474 32.239C28.3474 31.4786 28.3474 30.5662 28.3474 29.6537C28.3474 28.7413 28.3474 27.7528 28.3474 26.8404C28.3474 26.2321 28.3474 25.5478 28.4238 24.8635C28.5003 24.1031 28.5003 23.4188 28.5767 22.6585C28.6531 21.8981 28.6531 21.1377 28.7295 20.4534C28.8059 19.6931 28.8823 19.0848 28.8823 18.4765C28.9587 17.8682 28.9587 17.412 29.0351 17.0318C29.1115 16.6516 29.1115 16.4235 29.1115 16.3475C29.1115 16.1954 29.1879 16.1954 29.2643 16.1954C29.3407 16.1954 29.4936 16.2715 29.57 16.3475C29.7228 16.4235 29.7992 16.4996 29.8756 16.5756C29.952 16.6516 30.0284 16.6516 30.0284 16.5756C30.0284 16.4235 30.1812 16.4235 30.4105 16.4996C30.6397 16.5756 30.7925 16.7277 30.9453 16.8797C31.0217 16.9558 31.0981 17.0318 31.1746 17.1078C31.251 17.1839 31.3274 17.2599 31.4038 17.336C31.4802 17.412 31.5566 17.5641 31.633 17.7161C31.7094 17.8682 31.7094 18.0203 31.7094 18.2484C31.7094 18.4765 31.7094 18.7806 31.7858 19.2368C31.7858 19.6931 31.8622 20.2253 31.9386 20.8336C32.0915 20.3013 32.3207 19.6931 32.5499 19.0087C32.7791 18.4005 33.0848 17.7922 33.4668 17.2599C33.8489 16.7277 34.2309 16.2715 34.6894 15.9673C35.1478 15.5871 35.7591 15.4351 36.3704 15.4351C36.7524 15.4351 37.1344 15.5111 37.4401 15.6632C37.8221 15.8152 38.1278 16.0433 38.4334 16.2715C38.739 16.5756 38.9683 16.8797 39.1211 17.2599C39.5031 17.5641 39.5795 18.0203 39.5795 18.4765Z" fill="black"/>
<path d="M56.848 26.9165C56.848 27.0686 56.848 27.2967 56.848 27.5248C56.848 27.7529 56.848 28.057 56.848 28.3612C56.848 28.7414 56.7716 29.1976 56.6952 29.8059C56.6188 30.3381 56.3896 30.9464 56.1604 31.5547C55.9311 32.163 55.5491 32.7713 55.167 33.3795C54.785 33.9878 54.2501 34.5201 53.6389 35.0523C53.0276 35.5085 52.3399 35.9648 51.4994 36.2689C50.6589 36.5731 49.742 36.7251 48.6723 36.7251C47.7554 36.7251 46.7621 36.573 45.7688 36.1929C44.7755 35.8127 43.935 35.2804 43.0945 34.5201C42.3304 33.7597 41.6427 32.8473 41.1078 31.6307C40.573 30.4902 40.3438 29.0455 40.3438 27.4488C40.3438 26.4603 40.4966 25.4718 40.7258 24.4834C40.955 23.4949 41.3371 22.5825 41.7955 21.7461C42.254 20.9097 42.7124 20.0733 43.3237 19.3129C43.935 18.5526 44.5462 17.9443 45.2339 17.412C45.9216 16.8798 46.6093 16.4996 47.2969 16.1955C47.9846 15.8913 48.6723 15.7393 49.36 15.7393C50.5061 15.7393 51.4994 15.8913 52.2635 16.2715C53.0276 16.6517 53.6389 17.1079 54.0973 17.6402C54.5558 18.1724 54.8614 18.7807 55.0142 19.389C55.167 19.9973 55.3199 20.5295 55.3199 21.0618C55.3199 21.518 55.167 22.0502 54.9378 22.6585C54.7086 23.2668 54.3265 23.8751 53.7917 24.4073C53.2568 24.9396 52.5691 25.3958 51.7287 25.776C50.8882 26.1562 49.8184 26.3082 48.5959 26.3082C47.9082 26.3082 47.3734 26.2322 46.8385 26.0041C46.3036 25.852 45.8452 25.6239 45.4631 25.3198C45.0811 25.0156 44.699 24.7115 44.4698 24.4073C44.1642 24.1032 43.935 23.799 43.7821 23.4949C43.4765 24.4834 43.3237 25.6239 43.3237 26.9165C43.3237 27.8289 43.4765 28.5893 43.7057 29.3497C43.935 30.034 44.317 30.7183 44.7755 31.1745C45.2339 31.7068 45.7688 32.0869 46.4564 32.315C47.0677 32.6192 47.7554 32.6952 48.5195 32.6952C49.4364 32.6952 50.2769 32.5432 51.041 32.239C51.7286 31.9349 52.4163 31.4787 52.8748 31.0224C53.4096 30.5662 53.8681 30.034 54.2501 29.4257C54.6322 28.8174 55.0142 28.2852 55.2435 27.8289C55.5491 27.3727 55.7783 26.9165 56.0075 26.6124C56.2368 26.3082 56.466 26.1562 56.6188 26.1562C56.6952 26.1562 56.7716 26.2322 56.7716 26.3843C56.7716 26.4603 56.7716 26.5363 56.7716 26.6124C56.9244 26.7644 56.848 26.8405 56.848 26.9165ZM49.6656 18.0964C49.36 18.0964 48.9779 18.1724 48.5959 18.2484C48.1374 18.4005 47.679 18.5526 47.1441 18.8567C46.6093 19.1609 46.1508 19.541 45.6924 20.0733C45.2339 20.6055 44.7755 21.2138 44.3934 22.0502C44.6226 21.9742 44.7755 21.8221 45.0047 21.7461C45.1575 21.67 45.3103 21.594 45.3867 21.594C45.3867 21.594 45.4631 21.594 45.5395 21.67C45.9216 22.2783 46.38 22.7345 46.9149 22.9627C47.4498 23.1908 48.061 23.3428 48.7487 23.3428C49.2836 23.3428 49.742 23.2668 50.1241 23.0387C50.5061 22.8866 50.8117 22.6585 51.1174 22.3544C51.3466 22.0502 51.5758 21.7461 51.6522 21.4419C51.7287 21.1378 51.8051 20.7576 51.8051 20.4535C51.8051 19.7692 51.6522 19.1609 51.2702 18.7047C50.8117 18.3245 50.2769 18.0964 49.6656 18.0964Z" fill="black"/>
<path d="M85.96 9.80864C85.96 10.7211 85.8071 11.6335 85.5015 12.5459C85.1959 13.4584 84.8138 14.3708 84.279 15.2072C83.7441 16.0436 83.0564 16.88 82.2923 17.6403C81.5283 18.4007 80.6878 19.085 79.6945 19.6172C78.7775 20.2255 77.7078 20.6817 76.6381 21.0619C75.5684 21.4421 74.4222 21.6702 73.1997 21.7462C72.9705 21.7462 72.7413 21.7462 72.512 21.7462C72.2828 21.6702 72.13 21.6702 71.9008 21.5942C71.7479 21.5181 71.5951 21.4421 71.3659 21.3661C71.1367 21.29 70.9839 21.214 70.9074 21.138C70.831 21.0619 70.6782 20.9099 70.5254 20.6817C70.3726 20.4536 70.2198 20.3016 70.1434 20.2255C70.067 20.1495 70.067 19.9974 70.067 19.8454C70.067 19.6933 70.067 19.4652 70.067 19.2371C70.067 19.009 70.067 18.7809 70.067 18.5527C70.067 18.3246 70.067 18.1726 70.1434 18.1726C70.1434 18.1726 70.2198 18.1726 70.3726 18.2486C70.5254 18.3246 70.7546 18.4007 71.0603 18.4767C71.2131 18.4767 71.3659 18.5527 71.5187 18.4767C71.6715 18.4767 71.9008 18.4007 72.0536 18.4007C72.5884 18.3246 73.2761 18.1726 73.9638 17.9445C74.7279 17.6403 75.4156 17.3362 76.1797 16.88C76.9437 16.4237 77.7078 15.8915 78.4719 15.3592C79.236 14.751 79.8473 14.1427 80.4585 13.4584C81.0698 12.774 81.5283 12.0897 81.8339 11.3294C82.2159 10.569 82.3688 9.80864 82.3688 9.04828C82.3688 8.44 82.2159 7.83171 81.9867 7.29946C81.7575 6.76721 81.3754 6.15893 80.8406 5.62668C80.5349 5.2465 79.9237 4.94235 79.0068 4.79028C78.0899 4.56217 77.0201 4.48614 75.7212 4.48614C74.6515 4.48614 73.4289 4.56217 72.2064 4.71424C70.9839 4.86631 69.6849 5.17046 68.4624 5.55063C67.3927 5.93081 66.4757 6.23496 65.7117 6.46307C64.9476 6.69117 64.3363 6.99532 63.8014 7.14739C63.2666 7.3755 62.8081 7.52757 62.5025 7.67964C62.1969 7.83171 61.8912 7.90774 61.5856 8.05982C61.3564 8.13585 61.1271 8.28792 60.8979 8.36396C60.6687 8.44 60.4395 8.51603 60.2102 8.59206C59.981 8.6681 59.8282 8.74414 59.6754 8.74414C59.5226 8.74414 59.4461 8.74414 59.3697 8.74414C59.2169 8.74414 59.1405 8.6681 59.0641 8.6681C58.9877 8.59207 58.9113 8.59206 58.8349 8.51603C58.7585 8.43999 58.6821 8.43999 58.6821 8.43999C58.6056 8.43999 58.5292 8.43999 58.5292 8.43999C58.4528 8.43999 58.3764 8.43999 58.3764 8.43999C58.3 8.43999 58.2236 8.36396 58.2236 8.28792C58.1472 8.13585 58.0708 7.98378 57.9944 7.90775C57.918 7.83171 57.918 7.75567 57.918 7.67964C57.918 7.6036 57.918 7.52756 57.918 7.45153C57.918 7.37549 57.9944 7.29946 57.9944 7.22342C57.9944 7.14739 57.9944 7.07135 57.9944 6.99531C57.9944 6.91928 57.9944 6.84325 57.9944 6.76721C57.9944 6.69117 57.9944 6.61514 57.9944 6.5391C57.9944 6.46307 58.0708 6.38703 58.2236 6.31099C58.4528 6.15892 58.8349 5.85478 59.2933 5.4746C59.8282 5.09442 60.4395 4.71424 61.2035 4.25803C61.9676 3.80182 62.8081 3.3456 63.8014 2.88938C64.7948 2.43317 65.8645 1.97696 67.0106 1.59678C68.1567 1.2166 69.3793 0.912456 70.6782 0.608313C71.9772 0.380206 73.3525 0.228135 74.8043 0.1521C76.2561 0.1521 77.4786 0.30417 78.5483 0.608313C79.618 0.912456 80.6114 1.36867 81.3754 1.97696C82.2159 2.50921 82.8272 3.19353 83.4385 3.87785C83.9733 4.56217 84.4318 5.32253 84.7374 6.08289C85.0431 6.84325 85.2723 7.52756 85.4251 8.21188C85.8836 8.74413 85.96 9.35243 85.96 9.80864ZM69.6085 6.69117C69.6085 6.76721 69.5321 7.07135 69.5321 7.52757C69.4557 7.98378 69.4557 8.59206 69.3793 9.27639C69.3029 9.96071 69.2265 10.7971 69.2265 11.7095C69.1501 12.622 69.0736 13.6104 69.0736 14.5989C68.9972 15.5874 68.9208 16.5758 68.9208 17.6403C68.8444 18.6288 68.8444 19.6172 68.8444 20.5297C68.8444 21.4421 68.768 22.4306 68.768 23.419C68.768 24.4075 68.768 25.472 68.768 26.4605C68.768 27.677 68.768 28.8176 68.8444 29.9581C68.9208 31.0986 68.9972 32.2392 69.1501 33.3037C69.2265 33.6838 69.2265 33.988 69.0736 34.1401C68.9972 34.3682 68.9208 34.5202 68.9208 34.6723C68.9208 34.7484 68.9208 34.7484 68.9972 34.8244C69.0736 34.9004 69.0736 34.9004 68.9972 34.9004C68.9208 34.9765 68.8444 34.9765 68.768 34.9765C68.6152 34.9765 68.5388 34.9004 68.4624 34.8244C68.386 34.7484 68.386 34.7484 68.3096 34.6723C68.3096 34.5963 68.2331 34.5202 68.2331 34.5202C68.2331 34.4442 68.1567 34.4442 68.0803 34.4442C68.0039 34.4442 67.9275 34.4442 67.8511 34.5202C67.7747 34.5963 67.6983 34.6723 67.5455 34.8244C67.4691 34.9765 67.3162 35.1285 67.2398 35.2806C67.1634 35.4327 67.0106 35.5847 66.9342 35.6608C66.8578 35.8129 66.705 35.8889 66.6286 35.8889C66.5522 35.8889 66.3993 35.9649 66.2465 35.9649C66.0937 35.9649 66.0173 35.9649 66.0173 35.8129C66.0173 35.7368 65.9409 35.7368 65.9409 35.6608C65.9409 35.6608 65.8645 35.6608 65.7881 35.5847C65.7117 35.5847 65.7117 35.5087 65.6352 35.5087C65.5588 35.4327 65.5588 35.3566 65.5588 35.2806C65.4824 34.9765 65.406 34.8244 65.2532 34.6723C65.1768 34.5202 65.1004 34.3682 65.1004 34.2161C65.1004 33.912 65.024 33.1516 64.8712 31.859C64.7183 30.5664 64.7183 28.8176 64.7183 26.5365C64.7183 25.6241 64.7183 24.6356 64.7183 23.5711C64.7183 22.5066 64.7948 21.3661 64.8712 20.2255C64.9476 19.161 65.024 18.0205 65.1768 16.8039C65.2532 15.5874 65.406 14.3708 65.5588 13.1542C65.7117 11.9376 65.7881 10.8731 65.8645 9.80864C65.9409 8.82018 66.0173 7.90774 66.0937 7.29946C66.0937 7.22342 66.1701 7.14738 66.2465 7.07135C66.3229 7.07135 66.3993 6.99531 66.4757 6.99531C66.5522 6.99531 66.705 6.99532 66.9342 6.91928C67.087 6.91928 67.3162 6.84325 67.5455 6.76721C67.6983 6.69117 67.9275 6.61514 68.2331 6.46307C68.4624 6.38703 68.768 6.31099 68.9972 6.23496C69.2265 6.15892 69.3793 6.15892 69.5321 6.15892C69.5321 6.38703 69.6085 6.5391 69.6085 6.69117Z" fill="black"/>
<path d="M98.7957 21.6701C98.7957 22.2023 98.7956 22.8867 98.6428 23.7231C98.5664 24.5594 98.4136 25.3958 98.2608 26.3083C98.108 27.2207 97.9551 28.1331 97.8787 29.1216C97.8023 30.1101 97.7259 30.9464 97.7259 31.7828C97.7259 32.3151 97.8023 32.8473 97.8787 33.3796C97.9551 33.9118 98.108 34.292 98.2608 34.6722C98.3372 34.9003 98.4136 35.0524 98.4136 35.2044C98.4136 35.3565 98.4136 35.5086 98.4136 35.5846C98.4136 35.7367 98.3372 35.8127 98.3372 35.8888C98.3372 35.9648 98.3372 36.0408 98.3372 36.1169C98.3372 36.1929 98.3372 36.269 98.3372 36.421C98.2608 36.4971 98.1844 36.6491 98.108 36.7252C98.0316 36.8012 97.8787 36.8772 97.8023 36.8772C97.6495 36.9533 97.5731 36.8772 97.4967 36.8772C97.3439 36.8012 97.1911 36.7252 97.1147 36.7252C97.0382 36.7252 96.9618 36.7252 96.8854 36.7252C96.809 36.7252 96.7326 36.8012 96.7326 36.8012C96.6562 36.8012 96.5798 36.8012 96.5034 36.8012C96.1978 36.6491 95.9685 36.4971 95.5865 36.269C95.2808 36.1169 95.0516 35.8888 94.9752 35.6607C94.8988 35.5846 94.8224 35.4326 94.8224 35.2044C94.746 34.9763 94.746 34.7482 94.6696 34.4441C94.5932 34.1399 94.5932 33.8358 94.5932 33.4556C94.5932 33.0755 94.5168 32.7713 94.5168 32.4672C93.9819 33.4556 93.447 34.292 92.8358 34.9003C92.2245 35.5846 91.6132 36.0408 91.0784 36.421C90.4671 36.8012 89.9322 37.1053 89.321 37.2574C88.7097 37.4095 88.2513 37.4855 87.7164 37.4855C87.2579 37.4855 86.7995 37.4095 86.4174 37.3335C86.0354 37.1814 85.7298 37.0293 85.5769 36.8772C84.8129 36.1169 84.278 35.5086 83.896 34.9763C83.5903 34.5201 83.4375 34.1399 83.4375 33.8358C83.5139 32.8473 83.7431 31.8589 84.2016 31.0225C84.5836 30.1861 85.1185 29.3497 85.7298 28.6654C86.341 27.9811 87.0287 27.2967 87.7928 26.6884C88.5569 26.0802 89.321 25.624 90.1615 25.1677C90.9256 24.7115 91.766 24.3313 92.5301 24.0272C93.2942 23.7231 93.9819 23.495 94.6696 23.2668C94.6696 22.4304 94.5932 21.6701 94.5932 21.0618C94.5168 20.4535 94.5168 19.9213 94.4403 19.6171C94.2111 18.6287 93.8291 17.9443 93.3706 17.4121C92.9122 16.9559 92.3009 16.6517 91.6132 16.6517C91.1548 16.6517 90.6963 16.8038 90.2379 17.184C89.7794 17.4881 89.3974 17.9443 89.0153 18.5526C88.6333 19.0849 88.3277 19.7692 88.0984 20.5296C87.8692 21.2899 87.7164 22.0503 87.7164 22.8867C87.7164 23.1148 87.7164 23.2668 87.7164 23.495C87.7164 23.647 87.7928 23.8751 87.7928 24.1032C87.7928 24.1793 87.7928 24.2553 87.7164 24.3313C87.64 24.4074 87.4872 24.4074 87.4108 24.4074C87.2579 24.4074 87.1815 24.4834 87.0287 24.4834C86.8759 24.4834 86.7995 24.5594 86.6467 24.5594C86.5703 24.5594 86.4938 24.6355 86.4938 24.6355C86.4174 24.6355 86.4174 24.6355 86.341 24.6355C86.2646 24.6355 86.2646 24.5594 86.1882 24.4834C86.1118 24.4074 86.0354 24.3313 85.8826 24.2553C85.7298 24.1793 85.6534 24.1032 85.5005 24.0272C85.3477 23.9512 85.2713 23.8751 85.1185 23.8751C85.0421 23.7991 84.9657 23.7991 84.8893 23.7231C84.8129 23.647 84.8129 23.647 84.8129 23.571C84.8129 22.5825 85.0421 21.5941 85.5005 20.5296C85.959 19.4651 86.4938 18.5526 87.2579 17.6402C88.022 16.8038 88.8625 16.0435 89.8558 15.5112C90.8491 14.979 91.8425 14.6748 92.9886 14.6748C93.9055 14.6748 94.6696 14.8269 95.2808 15.055C95.9685 15.3591 96.5034 15.6633 96.9618 16.1195C97.4203 16.5757 97.8023 17.0319 98.108 17.5642C98.4136 18.0964 98.6428 18.6287 98.7957 19.1609C98.9485 19.6932 99.1013 20.2254 99.1777 20.6816C98.7192 20.9858 98.7957 21.366 98.7957 21.6701ZM94.4403 25.8521C93.9819 26.0041 93.447 26.2322 92.8358 26.5364C92.3009 26.8405 91.6896 27.1447 91.0784 27.5248C90.4671 27.905 89.9322 28.3612 89.321 28.8935C88.7097 29.4257 88.1748 29.958 87.7164 30.5663C87.1051 31.2506 86.6467 31.9349 86.4174 32.4672C86.1118 32.9994 85.959 33.4556 85.8826 33.9118C85.8062 34.292 85.8062 34.5962 85.959 34.8243C86.0354 35.0524 86.1882 35.2044 86.2646 35.2044C86.7231 35.3565 87.2579 35.4326 87.7928 35.2805C88.3277 35.1284 88.8625 34.9003 89.3974 34.4441C89.9322 34.0639 90.4671 33.6077 90.9256 33.0755C91.4604 32.5432 91.9189 31.9349 92.3773 31.4027C92.8358 30.7944 93.2178 30.2621 93.5999 29.7299C93.9819 29.1976 94.2111 28.6654 94.4403 28.2852V25.8521Z" fill="black"/>
<path d="M121.948 16.2715C121.871 16.3475 121.719 16.6517 121.489 17.0318C121.184 17.4881 120.878 18.0203 120.42 18.7046C119.961 19.3889 119.503 20.1493 118.968 21.0617C118.433 21.9742 117.822 22.8106 117.287 23.799C116.676 24.7114 116.141 25.6999 115.53 26.6123C114.995 27.5248 114.46 28.4372 113.925 29.1976C113.39 30.034 113.008 30.7183 112.626 31.4026C112.244 32.0109 112.015 32.5431 111.786 32.8473C111.556 33.1514 111.327 33.6837 111.021 34.292C110.716 34.9763 110.334 35.7366 109.952 36.573C109.57 37.4094 109.111 38.3979 108.653 39.3863C108.194 40.3748 107.736 41.3633 107.277 42.3517C106.819 43.3402 106.361 44.3287 105.902 45.2411C105.444 46.1535 105.062 46.9899 104.756 47.7503C104.45 48.5106 104.145 49.1189 103.915 49.5751C103.686 50.0314 103.533 50.3355 103.533 50.4115C103.381 50.7917 103.228 51.0198 103.151 51.0959C102.999 51.1719 102.846 51.2479 102.617 51.324C102.54 51.324 102.387 51.324 102.387 51.2479C102.311 51.1719 102.234 51.0958 102.234 50.9438C102.158 50.8677 102.158 50.7157 102.082 50.6396C102.005 50.5636 102.005 50.4876 101.929 50.4876C101.7 50.4876 101.623 50.4115 101.547 50.3355C101.547 50.2595 101.47 50.1834 101.394 50.0313C101.318 49.9553 101.318 49.9553 101.241 49.9553C101.165 49.9553 101.165 49.9553 101.088 49.9553C101.012 49.9553 101.012 49.9553 101.012 49.9553C101.012 49.9553 101.012 49.8793 101.012 49.8032C101.012 49.4991 101.088 49.271 101.088 48.9669C101.088 48.6627 101.165 48.4346 101.165 48.2065C101.241 48.0544 101.394 47.6742 101.623 47.142C101.929 46.6097 102.234 45.9254 102.693 45.089C103.075 44.2526 103.533 43.4162 104.068 42.4278C104.603 41.4393 105.138 40.4508 105.673 39.4624C106.208 38.4739 106.743 37.4854 107.277 36.497C107.812 35.5085 108.271 34.5961 108.653 33.8357C108.424 33.3795 108.194 32.8473 107.812 32.0869C107.43 31.4026 107.048 30.5662 106.666 29.7298C106.284 28.8934 105.826 27.981 105.367 26.9925C104.909 26.0041 104.45 25.0916 103.992 24.1032C103.533 23.1907 103.151 22.2023 102.693 21.3659C102.311 20.4534 101.929 19.6931 101.623 19.0088C101.318 18.3244 101.088 17.7162 100.859 17.2599C100.706 16.8037 100.63 16.4996 100.63 16.4236C100.63 16.2715 100.706 16.1194 100.783 16.0434C100.859 15.9673 100.936 15.9673 101.012 15.9673C101.088 15.9673 101.241 15.9673 101.318 16.0434C101.47 16.1194 101.547 16.1194 101.7 16.1954C101.852 16.2715 102.082 16.3475 102.234 16.4236C102.387 16.4996 102.54 16.4996 102.617 16.3475C102.693 16.1954 102.769 16.1194 102.999 16.1194C103.228 16.1194 103.381 16.1194 103.533 16.1954C103.61 16.2715 103.61 16.2715 103.686 16.2715C103.763 16.2715 103.763 16.1954 103.839 16.1954C103.915 16.1194 103.915 16.1194 103.992 16.0434C104.068 15.9673 104.145 15.9673 104.221 15.8913C104.374 15.8913 104.527 15.8913 104.68 15.9673C104.832 16.0434 104.985 16.2715 105.062 16.5756C105.138 16.8037 105.291 17.2599 105.52 17.7922C105.749 18.4005 106.055 19.0848 106.437 19.8452C106.743 20.6055 107.125 21.4419 107.583 22.3543C107.965 23.2668 108.424 24.1032 108.806 25.0156C109.188 25.852 109.646 26.6884 109.952 27.4487C110.334 28.2091 110.639 28.8174 110.945 29.3496C111.404 28.5893 111.862 27.7529 112.32 26.8404C112.855 25.928 113.314 25.0916 113.849 24.1792C114.383 23.2668 114.842 22.4304 115.377 21.594C115.912 20.7576 116.37 19.9212 116.829 19.2369C117.287 18.4765 117.669 17.8682 118.051 17.336C118.433 16.8037 118.662 16.3475 118.892 16.1194C119.044 15.9673 119.044 15.8913 119.044 15.8153C119.044 15.7392 119.121 15.7392 119.197 15.6632C119.274 15.6632 119.35 15.5872 119.426 15.5872C119.503 15.5872 119.579 15.5872 119.808 15.5872C119.961 15.5872 120.038 15.6632 120.114 15.6632C120.191 15.6632 120.267 15.7392 120.267 15.8153C120.267 15.8913 120.343 15.8913 120.42 15.8913C120.496 15.8913 120.573 15.8153 120.649 15.8153C120.725 15.7392 120.802 15.7392 120.955 15.6632C121.031 15.5872 121.107 15.5872 121.26 15.6632C121.337 15.6632 121.489 15.6632 121.566 15.7392C121.642 15.7392 121.795 15.8153 121.871 15.8913C121.948 15.9673 122.024 16.0434 122.024 16.1194C122.101 15.9673 122.024 16.1194 121.948 16.2715Z" fill="black"/>
<path d="M213.486 5.70264H190.793V46.3057H213.486V5.70264Z" fill="#EA560D"/>
<path d="M192.245 26.0042C192.245 17.7924 196.142 10.4169 202.178 5.70271C197.746 2.20507 192.169 0.1521 186.132 0.1521C171.767 0.1521 160.153 11.7095 160.153 26.0042C160.153 40.299 171.767 51.8564 186.132 51.8564C192.169 51.8564 197.746 49.8034 202.178 46.3058C196.142 41.5916 192.245 34.2921 192.245 26.0042Z" fill="#E30613"/>
<path d="M244.202 26.0042C244.202 40.299 232.588 51.8564 218.224 51.8564C212.187 51.8564 206.609 49.8034 202.178 46.3058C208.214 41.5916 212.111 34.2161 212.111 26.0042C212.111 17.7924 208.214 10.4169 202.178 5.70271C206.609 2.20507 212.187 0.1521 218.224 0.1521C232.512 0.228135 244.202 11.7856 244.202 26.0042Z" fill="#F59E00"/>
<path d="M141.127 0V51.5522" stroke="#262626" stroke-width="0.5" stroke-miterlimit="10"/>
</svg>
