<svg width="14" height="14" viewBox="0 0 14 14" fill="none" xmlns="http://www.w3.org/2000/svg">
<path d="M11.4166 8.33168L11.4166 8.33167C10.8483 7.78145 10.1896 7.35046 9.47324 7.0513C10.2353 6.39141 10.7188 5.43015 10.7188 4.35872C10.7188 2.36112 9.04308 0.75 7 0.75C4.95692 0.75 3.28125 2.36112 3.28125 4.35872C3.28125 5.43015 3.76466 6.39141 4.52677 7.0513C3.8104 7.35047 3.15174 7.78145 2.58347 8.33167L2.58346 8.33168C1.40248 9.47522 0.75 10.9986 0.75 12.6194V12.8694H1H1.9375H2.1875V12.6194C2.1875 10.062 4.33894 7.96744 7 7.96744C9.66106 7.96744 11.8125 10.062 11.8125 12.6194V12.8694H12.0625H13H13.25V12.6194C13.25 10.9986 12.5975 9.47522 11.4166 8.33168ZM7 6.55968C5.73469 6.55968 4.71875 5.56459 4.71875 4.35872C4.71875 3.15285 5.73469 2.15776 7 2.15776C8.26531 2.15776 9.28125 3.15285 9.28125 4.35872C9.28125 5.56459 8.26531 6.55968 7 6.55968Z" fill="#272D4E" stroke="#272D4E" stroke-width="0.5"/>
</svg>
