<svg width="74" height="73" viewBox="0 0 74 73" fill="none" xmlns="http://www.w3.org/2000/svg">
<path d="M22.6827 53.6431C22.7936 41.5373 27.7532 29.897 36.4822 21.255C45.2113 12.6131 57.0033 7.66894 69.2923 7.49846C70.2947 7.4845 71.256 7.07888 71.9649 6.37083C72.6737 5.66278 73.0719 4.7103 73.0719 3.72293C73.0719 2.73555 72.6737 1.79416 71.9649 1.10585C71.256 0.417545 70.2947 0.0386993 69.2923 0.0526584C54.9924 0.23886 41.2684 5.99219 31.1187 16.0557C20.9689 26.1193 15.2184 39.675 15.1234 53.7616L18.8979 58.6663L22.6827 53.6431ZM37.0399 51.1333L21.9216 71.1993C21.5695 71.6665 21.113 72.0482 20.5882 72.314C20.0634 72.5797 19.4847 72.7224 18.8979 72.7305C18.3112 72.7387 17.7324 72.6122 17.2076 72.361C16.6828 72.1099 16.2263 71.7409 15.8742 71.2835L0.755933 51.6385C0.154489 50.857 -0.103757 49.8677 0.0380042 48.8883C0.179766 47.9089 0.709923 47.0195 1.51185 46.4159C2.31377 45.8124 3.32178 45.5439 4.31411 45.6698C5.30644 45.7956 6.20182 46.3053 6.80326 47.0868L18.8979 62.8028L30.9926 46.75C31.2904 46.3547 31.6635 46.02 32.0906 45.765C32.5176 45.5099 32.9904 45.3396 33.4817 45.2636C33.9731 45.1876 34.4734 45.2075 34.9542 45.3221C35.4351 45.4368 35.8869 45.6439 36.284 45.9317C37.0859 46.513 37.6161 47.3875 37.7578 48.363C37.828 48.846 37.8007 49.3393 37.6776 49.8146C37.5544 50.2899 37.3377 50.738 37.0399 51.1333Z" fill="#CBD5EA"/>
</svg>
