<svg width="74" height="73" viewBox="0 0 74 73" fill="none" xmlns="http://www.w3.org/2000/svg">
<path d="M50.3896 53.6431C50.2786 41.5373 45.319 29.897 36.59 21.255C27.861 12.6131 16.069 7.66894 3.77997 7.49846C2.77757 7.4845 1.81622 7.07888 1.10741 6.37083C0.398604 5.66278 0.000395775 4.7103 0.000395818 3.72293C0.000395862 2.73555 0.398604 1.79416 1.10741 1.10585C1.81622 0.417545 2.77757 0.0386993 3.77997 0.0526584C18.0799 0.23886 31.8038 5.99219 41.9536 16.0557C52.1033 26.1193 57.8539 39.675 57.9489 53.7616L54.1744 58.6663L50.3896 53.6431ZM36.0324 51.1333L51.1507 71.1993C51.5027 71.6665 51.9593 72.0482 52.4841 72.314C53.0089 72.5797 53.5876 72.7224 54.1744 72.7305C54.7611 72.7387 55.3398 72.6122 55.8646 72.361C56.3894 72.1099 56.846 71.7409 57.198 71.2835L72.3163 51.6385C72.9178 50.857 73.176 49.8677 73.0343 48.8883C72.8925 47.9089 72.3623 47.0195 71.5604 46.4159C70.7585 45.8124 69.7505 45.5439 68.7582 45.6698C67.7658 45.7956 66.8705 46.3053 66.269 47.0868L54.1744 62.8028L42.0797 46.75C41.7819 46.3547 41.4088 46.02 40.9817 45.765C40.5546 45.5099 40.0819 45.3396 39.5906 45.2636C39.0992 45.1876 38.5988 45.2075 38.118 45.3221C37.6372 45.4368 37.1854 45.6439 36.7883 45.9317C35.9864 46.513 35.4562 47.3875 35.3144 48.363C35.2443 48.846 35.2715 49.3393 35.3947 49.8146C35.5179 50.2899 35.7346 50.738 36.0324 51.1333Z" fill="#CBD5EA"/>
</svg>
