<svg width="50" height="80" viewBox="0 0 50 80" fill="none" xmlns="http://www.w3.org/2000/svg">
<path d="M15.7597 61.1805C26.1448 56.9495 34.4727 48.7028 38.9314 38.235C43.39 27.7673 43.6185 15.9255 39.5672 5.28656C39.2368 4.41873 39.2576 3.45245 39.6251 2.6003C39.9926 1.74815 40.6767 1.07991 41.5268 0.742614C42.3769 0.405314 43.3234 0.426575 44.1582 0.801718C44.993 1.17685 45.6476 1.87515 45.978 2.74298C50.7027 15.1186 50.4374 28.9002 45.2401 41.0768C40.0428 53.2535 30.3359 62.8355 18.2401 67.7294L12.7277 66.1551L15.7597 61.1805ZM13.0161 47.9617L0.904087 67.8332C0.62204 68.2959 0.449403 68.8194 0.399853 69.362C0.350303 69.9047 0.425194 70.4517 0.618605 70.9596C0.812015 71.4676 1.11863 71.9227 1.51416 72.2887C1.9097 72.6548 2.38329 72.9218 2.89743 73.0686L24.9761 79.3744C25.8544 79.6252 26.7944 79.5096 27.5893 79.053C28.3841 78.5963 28.9687 77.8361 29.2145 76.9394C29.4602 76.0428 29.3469 75.0832 28.8996 74.2718C28.4523 73.4604 27.7075 72.8636 26.8292 72.6128L9.16627 67.5682L18.8558 51.671C19.0944 51.2796 19.2552 50.844 19.3288 50.3891C19.4025 49.9343 19.3877 49.4691 19.2853 49.0201C19.1829 48.5711 18.9948 48.1471 18.7318 47.7723C18.4689 47.3975 18.1362 47.0792 17.7527 46.8356C16.9783 46.3437 16.0442 46.1861 15.1559 46.3972C14.7161 46.5018 14.3007 46.6938 13.9336 46.9622C13.5664 47.2306 13.2546 47.5703 13.0161 47.9617Z" fill="white"/>
</svg>
