<svg width="59" height="77" viewBox="0 0 59 77" fill="none" xmlns="http://www.w3.org/2000/svg">
<path d="M37.311 19.2378C39.2197 30.4848 36.6999 42.0462 30.3001 51.4062C23.9003 60.7661 14.1384 67.1672 3.13848 69.2165C2.24124 69.3837 1.44581 69.9079 0.927178 70.6738C0.408552 71.4397 0.209211 72.3846 0.373007 73.3005C0.536802 74.2164 1.05032 75.0284 1.80059 75.5579C2.55085 76.0873 3.47642 76.2908 4.37366 76.1236C17.1755 73.7503 28.537 66.3012 35.9759 55.4039C43.4148 44.5065 46.3266 31.0466 44.0751 17.9647L39.8741 13.9956L37.311 19.2378ZM24.8432 23.7755L35.0816 2.83477C35.32 2.34713 35.6664 1.92285 36.0933 1.59553C36.5202 1.26822 37.0158 1.04686 37.541 0.948983C38.0662 0.851107 38.6066 0.879411 39.1192 1.03163C39.6318 1.18386 40.1027 1.45584 40.4945 1.82604L57.3206 17.7231C57.99 18.3555 58.3858 19.2335 58.4211 20.1639C58.4564 21.0942 58.1281 22.0008 57.5086 22.6841C56.8891 23.3675 56.029 23.7716 55.1177 23.8076C54.2063 23.8436 53.3182 23.5085 52.6488 22.8761L39.188 10.1584L30.9972 26.911C30.7955 27.3235 30.5162 27.6914 30.1753 27.9937C29.8343 28.296 29.4384 28.5268 29.01 28.6729C28.5817 28.819 28.1294 28.8776 27.6789 28.8452C27.2284 28.8129 26.7885 28.6902 26.3844 28.4844C25.5684 28.0686 24.9475 27.3389 24.6585 26.4558C24.5154 26.0185 24.458 25.5568 24.4897 25.0969C24.5214 24.637 24.6415 24.188 24.8432 23.7755Z" fill="white"/>
</svg>
